<svg t="1679290915659" class="icon" viewBox="0 0 1024 1024" version="1.1" xmlns="http://www.w3.org/2000/svg" p-id="2770" width="200" height="200"><path d="M1021.261913 444.950261a640.467478 640.467478 0 0 0-12.087652-58.835478 512.356174 512.356174 0 0 0-24.620522-72.525913 522.418087 522.418087 0 0 0-81.875478-133.654261 502.00487 502.00487 0 0 0-129.335652-108.78887A506.278957 506.278957 0 0 0 618.073043 11.620174a450.738087 450.738087 0 0 0-85.748869-9.349565c-22.572522-0.222609-45.167304 0.690087-67.517217 2.738087a517.12 517.12 0 0 0-168.514783 46.747826 525.846261 525.846261 0 0 0-124.994783 82.587826 515.673043 515.673043 0 0 0-96.233739 114.710261c-28.983652 47.415652-50.643478 99.194435-62.508522 153.466434-9.572174 43.341913-14.135652 88.041739-11.842782 132.518957 2.048 43.097043 8.659478 86.194087 21.659826 127.488 8.214261 26.223304 18.031304 51.756522 30.341565 76.621913a513.335652 513.335652 0 0 0 303.549218 260.674783 509.595826 509.595826 0 0 0 171.720347 23.730087 508.193391 508.193391 0 0 0 165.576348-33.079653 494.814609 494.814609 0 0 0 140.243478-82.788173c20.992-17.808696 39.69113-37.843478 57.254957-59.058087 17.808696-21.437217 33.747478-44.032 46.970435-68.429913 11.419826-20.969739 20.992-42.874435 29.206261-65.00174 4.096-10.930087 7.991652-21.882435 11.174956-33.28 3.428174-12.087652 5.921391-24.642783 8.214261-36.953043 3.405913-19.389217 4.786087-39.468522 2.960696-59.080348-1.602783 8.681739-2.960696 17.118609-5.008696 25.555478-2.515478 9.794783-5.721043 19.366957-9.349565 28.716522-7.301565 19.856696-16.428522 39.023304-25.088 58.167652a614.511304 614.511304 0 0 1-38.333218 70.255305 493.412174 493.412174 0 0 1-23.017739 33.970087c-8.236522 10.952348-17.586087 21.437217-26.935652 31.699478a395.998609 395.998609 0 0 1-61.551304 55.652174 458.262261 458.262261 0 0 1-73.216 44.009739 472.242087 472.242087 0 0 1-164.886261 45.167304 471.997217 471.997217 0 0 1-174.013218-17.341217 466.966261 466.966261 0 0 1-148.48-74.796522 467.255652 467.255652 0 0 1-109.924173-118.138435c-30.786783-46.302609-51.97913-98.526609-63.621566-153.043478a457.950609 457.950609 0 0 1-6.834087-43.097043 506.12313 506.12313 0 0 1-2.960695-37.398261c-0.690087-25.778087 0.890435-52.446609 4.786087-78.002087a455.524174 455.524174 0 0 1 54.962087-159.410087 456.548174 456.548174 0 0 1 96.01113-117.225739 452.296348 452.296348 0 0 1 129.536-80.050087 440.765217 440.765217 0 0 1 85.303652-24.865392 425.182609 425.182609 0 0 1 44.454957-6.144c7.301565-0.690087 14.380522-0.690087 21.682087-1.380174 2.960696 0 5.921391 0.222609 8.904348 0.222609 49.463652-0.890435 99.194435 5.476174 146.409739 20.301913a428.232348 428.232348 0 0 1 140.243478 75.264 439.273739 439.273739 0 0 1 107.186087 127.265392 476.538435 476.538435 0 0 1 49.953391 132.719304c2.270609 10.729739 4.096 21.437217 5.921392 32.166956 1.602783 9.794783 7.078957 18.921739 15.515826 24.397913 17.808696 11.865043 42.651826 3.873391 51.311304-15.270956 2.960696-6.611478 3.873391-13.690435 2.738087-20.301913z" fill="#dddddd" p-id="2771"></path></svg>